<mxfile host="app.diagrams.net" modified="2023-07-31T07:00:47.274Z" agent="Mozilla/5.0 (Macintosh; Intel Mac OS X 10_15_7) AppleWebKit/537.36 (KHTML, like Gecko) Chrome/115.0.0.0 Safari/537.36" version="21.6.2" etag="JPe5F97cnqBTN0Jkb_ka" type="github">
  <diagram name="第 1 页" id="02tm-BT_E3tlLpvQ9Dll">
    <mxGraphModel>
      <root>
        <mxCell id="0" />
        <mxCell id="1" parent="0" />
      </root>
    </mxGraphModel>
  </diagram>
</mxfile>
